{
  "source": "C:\\Users\\Peter\\Desktop\\stuff\\MIUN\\quantitative_research\\video_compression\\videos\\BVI-HD\\BVI-HD_CDVL_videos\\ORIG\\Bookcase_1920x1080_60fps.mp4",
  "output": "C:\\Users\\Peter\\Desktop\\stuff\\MIUN\\quantitative_research\\video_compression\\compressed_videos\\BVI-HD\\av1\\1.5\\Bookcase_1920x1080_60fps_av1.mkv",
  "codec": "av1",
  "ok": "Input #0, mov,mp4,m4a,3gp,3g2,mj2, from 'C:\\Users\\Peter\\Desktop\\stuff\\MIUN\\quantitative_research\\video_compression\\videos\\BVI-HD\\BVI-HD_CDVL_videos\\ORIG\\Bookcase_1920x1080_60fps.mp4':\n  Metadata:\n    major_brand     : isom\n    minor_version   : 512\n    compatible_brands: isomiso2avc1mp41\n    encoder         : Lavf54.28.101\n  Duration: 00:00:05.00, start: 0.000000, bitrate: 336321 kb/s\n  Stream #0:0[0x1](und): Video: h264 (High 4:4:4 Predictive) (avc1 / 0x31637661), yuv420p(progressive), 1920x1080, 336316 kb/s, 60 fps, 60 tbr, 60 tbn (default)\n    Metadata:\n      handler_name    : VideoHandler\n      vendor_id       : [0][0][0][0]\n[out#0/matroska @ 00000283900ead80] Codec AVOption b:a (set bitrate (in bits/s)) has not been used for any stream. The most likely reason is either wrong type (e.g. a video option with no video streams) or that it is a private option of some decoder which was not actually used for any stream.\nStream mapping:\n  Stream #0:0 -> #0:0 (h264 (native) -> av1 (libsvtav1))\nPress [q] to stop, [?] for help\nSvt[info]: -------------------------------------------\nSvt[info]: SVT [version]:\tSVT-AV1 Encoder Lib v3.1.0-19-g6ecfe8ec\nSvt[info]: SVT [build]  :\tGCC 15.2.0\t 64 bit\nSvt[info]: LIB Build date: Aug 17 2025 11:37:13\nSvt[info]: -------------------------------------------\nSvt[info]: Level of Parallelism: 5\nSvt[info]: Number of PPCS 93\nSvt[info]: [asm level on system : up to avx2]\nSvt[info]: [asm level selected : up to avx2]\nSvt[info]: -------------------------------------------\nSvt[info]: SVT [config]: main profile\ttier (auto)\tlevel (auto)\nSvt[info]: SVT [config]: width / height / fps numerator / fps denominator \t\t: 1920 / 1080 / 60 / 1\nSvt[info]: SVT [config]: bit-depth / color format \t\t\t\t\t: 8 / YUV420\nSvt[info]: SVT [config]: preset / tune / pred struct \t\t\t\t\t: 4 / PSNR / random access\nSvt[info]: SVT [config]: gop size / mini-gop size / key-frame type \t\t\t: 321 / 16 / key frame\nSvt[info]: SVT [config]: BRC mode / target bitrate (kbps)\t\t\t\t: VBR / 1500 \nSvt[info]: SVT [config]: AQ mode / Variance Boost \t\t\t\t\t: 2 / 0\nSvt[info]: SVT [config]: sharpness / luminance-based QP bias \t\t\t\t: 0 / 0\nSvt[info]: SVT [config]: QP scale compress strength \t\t\t\t\t: 0\nSvt[info]: -------------------------------------------\nOutput #0, matroska, to 'C:\\Users\\Peter\\Desktop\\stuff\\MIUN\\quantitative_research\\video_compression\\compressed_videos\\BVI-HD\\av1\\1.5\\Bookcase_1920x1080_60fps_av1.mkv':\n  Metadata:\n    major_brand     : isom\n    minor_version   : 512\n    compatible_brands: isomiso2avc1mp41\n    encoder         : Lavf62.3.100\n  Stream #0:0(und): Video: av1 (AV01 / 0x31305641), yuv420p(tv, progressive), 1920x1080, q=2-31, 1500 kb/s, 60 fps, 1k tbn (default)\n    Metadata:\n      encoder         : Lavc62.11.100 libsvtav1\n      handler_name    : VideoHandler\n      vendor_id       : [0][0][0][0]\n    Side data:\n      cpb: bitrate max/min/avg: 0/0/1500000 buffer size: 1500000 vbv_delay: N/A\nframe=    0 fps=0.0 q=0.0 size=       0KiB time=N/A bitrate=N/A speed=N/A elapsed=0:00:01.08    \nframe=    0 fps=0.0 q=0.0 size=       0KiB time=N/A bitrate=N/A speed=N/A elapsed=0:00:01.62    \nframe=    0 fps=0.0 q=0.0 size=       0KiB time=N/A bitrate=N/A speed=N/A elapsed=0:00:02.15    \nframe=    0 fps=0.0 q=0.0 size=       0KiB time=N/A bitrate=N/A speed=N/A elapsed=0:00:02.75    \nframe=    0 fps=0.0 q=0.0 size=       0KiB time=N/A bitrate=N/A speed=N/A elapsed=0:00:03.34    \nframe=    0 fps=0.0 q=0.0 size=       0KiB time=N/A bitrate=N/A speed=N/A elapsed=0:00:03.87    \nframe=    0 fps=0.0 q=0.0 size=       0KiB time=N/A bitrate=N/A speed=N/A elapsed=0:00:04.42    \nframe=    0 fps=0.0 q=0.0 size=       0KiB time=N/A bitrate=N/A speed=N/A elapsed=0:00:04.96    \nframe=    1 fps=0.2 q=21.0 size=       1KiB time=00:00:00.00 bitrate=N/A speed=   0x elapsed=0:00:05.51    \nframe=    1 fps=0.2 q=21.0 size=       1KiB time=00:00:00.00 bitrate=N/A speed=   0x elapsed=0:00:06.08    \nframe=    6 fps=0.9 q=45.0 size=       1KiB time=00:00:00.05 bitrate= 113.9kbits/s speed=0.00754x elapsed=0:00:06.63    \nframe=   12 fps=1.7 q=43.0 size=       1KiB time=00:00:00.16 bitrate=  34.2kbits/s speed=0.023x elapsed=0:00:07.25    \nframe=   14 fps=1.8 q=42.0 size=       1KiB time=00:00:00.21 bitrate=  26.3kbits/s speed=0.0276x elapsed=0:00:07.86    \nframe=   20 fps=2.4 q=39.0 size=       1KiB time=00:00:00.30 bitrate=  19.0kbits/s speed=0.0357x elapsed=0:00:08.40    \nframe=   25 fps=2.8 q=35.0 size=       1KiB time=00:00:00.38 bitrate=  14.9kbits/s speed=0.0428x elapsed=0:00:08.94    \nframe=   27 fps=2.8 q=37.0 size=       1KiB time=00:00:00.43 bitrate=  13.1kbits/s speed=0.0455x elapsed=0:00:09.51    \nframe=   32 fps=3.2 q=34.0 size=       1KiB time=00:00:00.51 bitrate=  11.0kbits/s speed=0.0515x elapsed=0:00:10.03    \nframe=   37 fps=3.5 q=38.0 size=       1KiB time=00:00:00.60 bitrate=   9.5kbits/s speed=0.0567x elapsed=0:00:10.57    \nframe=   39 fps=3.5 q=34.0 size=       1KiB time=00:00:00.63 bitrate=   9.0kbits/s speed=0.057x elapsed=0:00:11.11    \nframe=   42 fps=3.6 q=30.0 size=       1KiB time=00:00:00.68 bitrate=   8.3kbits/s speed=0.0585x elapsed=0:00:11.67    \nframe=   43 fps=3.5 q=31.0 size=       1KiB time=00:00:00.70 bitrate=   8.1kbits/s speed=0.0573x elapsed=0:00:12.21    \nframe=   48 fps=3.8 q=30.0 size=       1KiB time=00:00:00.78 bitrate=   7.3kbits/s speed=0.0614x elapsed=0:00:12.75    \nframe=   51 fps=3.8 q=30.0 size=       1KiB time=00:00:00.83 bitrate=   6.8kbits/s speed=0.0627x elapsed=0:00:13.28    \nframe=   55 fps=4.0 q=32.0 size=       1KiB time=00:00:00.90 bitrate=   6.3kbits/s speed=0.065x elapsed=0:00:13.84    \nframe=   59 fps=4.1 q=34.0 size=       1KiB time=00:00:00.96 bitrate=   5.9kbits/s speed=0.067x elapsed=0:00:14.42    \nframe=   64 fps=4.3 q=32.0 size=       1KiB time=00:00:01.05 bitrate=   5.4kbits/s speed=0.0702x elapsed=0:00:14.96    \nframe=   69 fps=4.5 q=31.0 size=       1KiB time=00:00:01.13 bitrate=   5.0kbits/s speed=0.0731x elapsed=0:00:15.50    \nframe=   72 fps=4.5 q=32.0 size=       1KiB time=00:00:01.18 bitrate=   4.8kbits/s speed=0.0736x elapsed=0:00:16.06    \nframe=   76 fps=4.6 q=33.0 size=       1KiB time=00:00:01.25 bitrate=   4.6kbits/s speed=0.0751x elapsed=0:00:16.64    \nframe=   82 fps=4.8 q=34.0 size=       1KiB time=00:00:01.35 bitrate=   4.2kbits/s speed=0.0786x elapsed=0:00:17.17    \nframe=   86 fps=4.8 q=34.0 size=       1KiB time=00:00:01.41 bitrate=   4.0kbits/s speed=0.0799x elapsed=0:00:17.73    \nframe=   89 fps=4.9 q=31.0 size=       1KiB time=00:00:01.46 bitrate=   3.9kbits/s speed=0.0802x elapsed=0:00:18.27    \nframe=   95 fps=5.0 q=35.0 size=       1KiB time=00:00:01.56 bitrate=   3.6kbits/s speed=0.0833x elapsed=0:00:18.81    \nframe=  101 fps=5.2 q=34.0 size=       1KiB time=00:00:01.66 bitrate=   3.4kbits/s speed=0.086x elapsed=0:00:19.38    \nframe=  105 fps=5.3 q=31.0 size=       1KiB time=00:00:01.73 bitrate=   3.3kbits/s speed=0.0869x elapsed=0:00:19.93    \nframe=  111 fps=5.4 q=35.0 size=       1KiB time=00:00:01.83 bitrate=   3.1kbits/s speed=0.0893x elapsed=0:00:20.53    \nframe=  116 fps=5.5 q=37.0 size=       1KiB time=00:00:01.91 bitrate=   3.0kbits/s speed=0.091x elapsed=0:00:21.06    \nframe=  121 fps=5.6 q=33.0 size=       1KiB time=00:00:02.00 bitrate=   2.8kbits/s speed=0.0926x elapsed=0:00:21.60    \nframe=  125 fps=5.6 q=35.0 size=       1KiB time=00:00:02.06 bitrate=   2.8kbits/s speed=0.093x elapsed=0:00:22.21    \nframe=  130 fps=5.7 q=37.0 size=       1KiB time=00:00:02.15 bitrate=   2.6kbits/s speed=0.0944x elapsed=0:00:22.77    \nframe=  135 fps=5.8 q=36.0 size=       1KiB time=00:00:02.23 bitrate=   2.6kbits/s speed=0.0959x elapsed=0:00:23.28    \nframe=  141 fps=5.9 q=35.0 size=       1KiB time=00:00:02.31 bitrate=   2.5kbits/s speed=0.0972x elapsed=0:00:23.83    \nframe=  146 fps=6.0 q=40.0 size=       1KiB time=00:00:02.41 bitrate=   2.4kbits/s speed=0.099x elapsed=0:00:24.40    \nframe=  153 fps=6.1 q=33.0 size=       1KiB time=00:00:02.51 bitrate=   2.3kbits/s speed=0.101x elapsed=0:00:24.96    \nframe=  158 fps=6.2 q=40.0 size=       1KiB time=00:00:02.61 bitrate=   2.2kbits/s speed=0.102x elapsed=0:00:25.56    \nframe=  164 fps=6.3 q=41.0 size=       1KiB time=00:00:02.71 bitrate=   2.1kbits/s speed=0.104x elapsed=0:00:26.09    \nframe=  170 fps=6.4 q=41.0 size=       1KiB time=00:00:02.81 bitrate=   2.0kbits/s speed=0.106x elapsed=0:00:26.60    \nframe=  175 fps=6.4 q=40.0 size=       1KiB time=00:00:02.88 bitrate=   2.0kbits/s speed=0.106x elapsed=0:00:27.17    \nframe=  182 fps=6.6 q=42.0 size=       1KiB time=00:00:03.01 bitrate=   1.9kbits/s speed=0.109x elapsed=0:00:27.73    \nframe=  186 fps=6.6 q=44.0 size=       1KiB time=00:00:03.06 bitrate=   1.9kbits/s speed=0.108x elapsed=0:00:28.26    \nframe=  191 fps=6.6 q=43.0 size=       1KiB time=00:00:03.15 bitrate=   1.8kbits/s speed=0.109x elapsed=0:00:28.86    \nframe=  197 fps=6.7 q=45.0 size=       1KiB time=00:00:03.25 bitrate=   1.8kbits/s speed=0.11x elapsed=0:00:29.48    \nframe=  202 fps=6.7 q=46.0 size=       1KiB time=00:00:03.33 bitrate=   1.7kbits/s speed=0.111x elapsed=0:00:30.08    \nframe=  209 fps=6.8 q=28.0 size=       1KiB time=00:00:03.46 bitrate=   1.6kbits/s speed=0.113x elapsed=0:00:30.80    \nframe=  217 fps=6.9 q=39.0 size=       1KiB time=00:00:03.56 bitrate=   1.6kbits/s speed=0.114x elapsed=0:00:31.37    \nframe=  219 fps=6.9 q=44.0 size=       1KiB time=00:00:03.60 bitrate=   1.6kbits/s speed=0.113x elapsed=0:00:31.95    \nframe=  225 fps=6.9 q=31.0 size=       1KiB time=00:00:03.73 bitrate=   1.5kbits/s speed=0.115x elapsed=0:00:32.51    \nframe=  233 fps=7.0 q=39.0 size=       1KiB time=00:00:03.86 bitrate=   1.5kbits/s speed=0.117x elapsed=0:00:33.09    \nframe=  241 fps=7.2 q=33.0 size=       1KiB time=00:00:03.96 bitrate=   1.4kbits/s speed=0.118x elapsed=0:00:33.66    \nframe=  249 fps=7.3 q=38.0 size=       1KiB time=00:00:04.13 bitrate=   1.4kbits/s speed=0.121x elapsed=0:00:34.25    \nframe=  253 fps=7.3 q=40.0 size=       1KiB time=00:00:04.20 bitrate=   1.4kbits/s speed=0.121x elapsed=0:00:34.77    \nframe=  265 fps=7.5 q=40.0 size=       1KiB time=00:00:04.40 bitrate=   1.3kbits/s speed=0.125x elapsed=0:00:35.30    \nframe=  273 fps=7.6 q=34.0 size=       1KiB time=00:00:04.53 bitrate=   1.3kbits/s speed=0.127x elapsed=0:00:35.82    \nframe=  285 fps=7.8 q=49.0 size=       1KiB time=00:00:04.73 bitrate=   1.2kbits/s speed=0.13x elapsed=0:00:36.37    \n[out#0/matroska @ 00000283900ead80] video:838KiB audio:0KiB subtitle:0KiB other streams:0KiB global headers:0KiB muxing overhead: 0.247630%\nframe=  300 fps=8.2 q=51.0 Lsize=     840KiB time=00:00:04.98 bitrate=1381.0kbits/s speed=0.136x elapsed=0:00:36.60    \n",
  "seconds": 37.09165358543396,
  "probe_out": {}
}